<?xml version="1.0" standalone="no"?>
<!DOCTYPE svg PUBLIC "-//W3C//DTD SVG 20010904//EN"
 "http://www.w3.org/TR/2001/REC-SVG-20010904/DTD/svg10.dtd">
<svg version="1.0" xmlns="http://www.w3.org/2000/svg"
 width="500.000000pt" height="500.000000pt" viewBox="0 0 500.000000 500.000000"
 preserveAspectRatio="xMidYMid meet">

<g transform="translate(0.000000,500.000000) scale(0.100000,-0.100000)"
fill="#000000" stroke="none">
<path d="M1365 4189 c-562 -94 -941 -618 -850 -1174 47 -289 218 -549 460
-701 17 -11 -1 12 -42 54 -156 158 -237 335 -250 544 -11 173 31 336 126 493
26 44 67 118 89 165 78 158 208 299 362 390 198 118 461 166 677 125 43 -8 80
-15 83 -15 13 2 -103 56 -165 77 -141 48 -349 66 -490 42z"/>
<path d="M1740 3565 l0 -55 75 0 75 0 0 55 0 55 -75 0 -75 0 0 -55z"/>
<path d="M1080 3510 l0 -70 45 0 45 0 0 -300 0 -300 70 0 70 0 2 298 3 297 43
3 42 3 0 70 0 69 -160 0 -160 0 0 -70z"/>
<path d="M2360 3210 l0 -370 80 0 80 0 0 370 0 370 -80 0 -80 0 0 -370z"/>
<path d="M1654 3470 c-12 -4 -31 -21 -43 -36 l-21 -27 0 32 0 31 -75 0 -75 0
0 -315 0 -315 75 0 75 0 2 248 3 247 53 9 52 10 0 63 c0 66 -4 70 -46 53z"/>
<path d="M2054 3469 c-23 -5 -53 -20 -67 -33 -27 -25 -50 -92 -45 -129 3 -20
9 -22 73 -22 l70 0 5 35 c4 29 9 35 30 35 23 0 25 -4 28 -56 l3 -56 -60 -18
c-128 -39 -155 -74 -155 -205 -1 -111 21 -159 79 -178 49 -16 79 -9 111 25
l24 26 0 -27 c0 -26 1 -26 75 -26 l75 0 0 261 c0 295 -3 310 -70 348 -46 26
-118 34 -176 20z m96 -396 c0 -105 -7 -127 -36 -121 -17 3 -19 14 -22 90 -2
77 0 90 18 108 11 11 25 20 30 20 6 0 10 -39 10 -97z"/>
<path d="M1740 3155 l0 -315 75 0 75 0 0 315 0 315 -75 0 -75 0 0 -315z"/>
</g>
</svg>
