<?xml version="1.0" standalone="no"?>
<!DOCTYPE svg PUBLIC "-//W3C//DTD SVG 20010904//EN"
 "http://www.w3.org/TR/2001/REC-SVG-20010904/DTD/svg10.dtd">
<svg version="1.0" xmlns="http://www.w3.org/2000/svg"
 width="500.000000pt" height="500.000000pt" viewBox="0 0 500.000000 500.000000"
 preserveAspectRatio="xMidYMid meet">

<g transform="translate(0.000000,500.000000) scale(0.100000,-0.100000)"
fill="#000000" stroke="none">
<path d="M1154 3841 c-296 -77 -516 -245 -667 -506 -94 -161 -137 -328 -137
-525 0 -226 58 -418 183 -605 54 -81 219 -241 298 -289 l64 -39 -61 65 c-275
287 -313 724 -93 1052 43 65 111 141 95 106 -7 -17 -2 -8 64 92 25 37 81 104
124 148 143 144 319 241 520 287 101 23 125 25 266 20 117 -4 173 -10 229 -26
40 -12 75 -20 78 -18 11 11 -172 132 -267 176 -138 64 -229 83 -415 87 -162 4
-175 3 -281 -25z"/>
<path d="M2080 3195 l0 -55 80 0 80 0 0 55 0 55 -80 0 -80 0 0 -55z"/>
<path d="M1342 3133 l3 -78 48 -3 47 -3 0 -330 0 -329 85 0 85 0 0 330 0 330
45 0 45 0 0 80 0 80 -180 0 -181 0 3 -77z"/>
<path d="M2770 2800 l0 -410 85 0 85 0 0 410 0 410 -85 0 -85 0 0 -410z"/>
<path d="M1984 3086 c-17 -8 -40 -26 -52 -41 l-22 -28 0 37 0 36 -80 0 -80 0
0 -350 0 -350 80 0 80 0 0 270 c0 302 -6 281 78 295 l42 7 0 69 c0 38 -3 69
-7 69 -5 -1 -22 -7 -39 -14z"/>
<path d="M2445 3091 c-90 -16 -130 -61 -142 -161 l-6 -50 80 0 80 0 7 40 c12
78 65 58 74 -28 l4 -50 -83 -27 c-105 -35 -142 -69 -158 -143 -32 -149 11
-270 102 -287 44 -9 96 14 119 53 l17 27 1 -37 0 -38 80 0 80 0 0 290 c0 318
-1 324 -59 373 -17 14 -53 30 -81 36 -55 12 -55 12 -115 2z m74 -567 c-6 -8
-17 -14 -25 -14 -23 0 -34 36 -34 115 0 73 1 78 33 108 l32 32 3 -114 c2 -75
-1 -118 -9 -127z"/>
<path d="M2080 2740 l0 -350 80 0 80 0 0 350 0 350 -80 0 -80 0 0 -350z"/>
</g>
</svg>
